<svg width="50" height="50" viewBox="0 0 50 50" fill="none" xmlns="http://www.w3.org/2000/svg">
<circle cx="24.7213" cy="24.7213" r="24.7213" fill="#C2F753"/>
<path d="M12.2383 35.7757C11.4961 35.7757 10.7774 35.7881 10.0586 35.7726C8.77846 35.7461 7.99262 34.9276 8.00042 33.6524C8.00822 32.4365 8.80497 31.5993 10.0243 31.5588C10.7446 31.5354 11.465 31.5541 12.2383 31.5541V27.2266C11.5647 27.2266 10.8771 27.2313 10.1895 27.2266C8.80809 27.2126 7.97859 26.3941 8.00042 25.0722C8.02225 23.7876 8.83615 23.0191 10.1989 23.005C10.8662 22.9988 11.532 23.005 12.2446 23.005V18.6791C11.5476 18.6791 10.8584 18.6853 10.1693 18.6791C8.83927 18.6635 8.01133 17.856 8.00042 16.573C7.98951 15.2744 8.78937 14.4793 10.1428 14.456C10.835 14.445 11.5273 14.4544 12.2508 14.4544C12.3288 12.5447 12.94 10.9484 14.3027 9.68412C15.561 8.51493 17.0796 8.01764 18.7651 8.01296C24.4328 8.00205 30.0989 7.98958 35.7666 8.01452C39.4385 8.03167 42.1141 10.593 42.1968 14.272C42.281 17.9963 42.2155 21.7221 42.2139 25.4479C42.2139 25.5165 42.1812 25.5835 42.1905 25.5476C41.1677 24.631 40.215 23.5585 39.0534 22.8102C38.1631 22.2365 37.884 21.6691 37.9261 20.6604C38.0103 18.6713 37.9604 16.6774 37.9479 14.6851C37.937 12.9921 37.2276 12.2797 35.5327 12.2766C30.021 12.2688 24.5092 12.2688 18.9974 12.2766C17.2433 12.2782 16.5168 13.0264 16.5168 14.7942C16.5152 21.6503 16.5168 28.5065 16.5168 35.3626C16.5168 37.2317 17.2246 37.9441 19.0816 37.9535C20.0125 37.9582 21.0727 37.6807 21.8383 38.0377C22.5462 38.3666 22.9017 39.4048 23.4801 40.0705C24.1023 40.786 24.8039 41.4314 25.5819 42.2202C24.8865 42.2202 24.3065 42.2233 23.7281 42.2202C21.8134 42.2062 19.8893 42.3091 17.9886 42.1438C14.7549 41.8648 12.519 39.4532 12.2913 36.2246C12.282 36.1015 12.2633 35.9783 12.2383 35.7741V35.7757Z" fill="black"/>
<path d="M32.6403 23.0052C37.979 23.0192 42.2154 27.2797 42.2169 32.6315C42.2169 37.9396 37.912 42.2266 32.5858 42.2219C27.18 42.2172 22.9717 37.9302 22.9967 32.4569C23.0216 27.1737 27.2892 22.9911 32.6403 23.0052ZM32.5561 37.952C35.5857 37.9552 37.9323 35.6433 37.9447 32.6408C37.9572 29.643 35.6075 27.247 32.6341 27.2283C29.6779 27.2096 27.2362 29.6181 27.2221 32.5644C27.2096 35.5591 29.5734 37.9474 32.5546 37.9505L32.5561 37.952Z" fill="black"/>
<path d="M35.7356 18.7415V20.807H18.7544V18.7415H35.7356Z" fill="black"/>
<path d="M18.7231 16.4732V14.5059H35.7278V16.4732H18.7231Z" fill="black"/>
<path d="M25.7693 23.0051C25.0443 23.6895 24.4315 24.2788 23.8031 24.8509C23.6815 24.9616 23.4975 25.0676 23.3416 25.0691C21.823 25.0847 20.3043 25.0785 18.7373 25.0785V23.0051H25.7693Z" fill="black"/>
<path d="M21.2348 29.3624H18.7432V27.3218H21.9691C21.7275 27.9937 21.4889 28.6593 21.2363 29.3624H21.2348Z" fill="black"/>
<path d="M20.8873 33.6071H18.7402V31.6133H20.8873V33.6071Z" fill="black"/>
<path d="M33.637 31.5525C34.0876 31.5525 34.3963 31.5416 34.7035 31.5541C35.416 31.5852 35.7684 31.9344 35.7684 32.6017C35.7684 33.2611 35.4223 33.6149 34.7768 33.6337C34.0299 33.6555 33.2799 33.6539 32.5331 33.6305C31.8798 33.6103 31.5555 33.233 31.5492 32.5876C31.543 31.8908 31.5336 31.194 31.5508 30.4987C31.5679 29.833 31.9905 29.3981 32.5892 29.3903C33.1926 29.3809 33.5949 29.7925 33.6354 30.4831C33.6542 30.812 33.6386 31.1441 33.6386 31.5541L33.637 31.5525Z" fill="black"/>
</svg>
