<svg width="50" height="50" viewBox="0 0 50 50" fill="none" xmlns="http://www.w3.org/2000/svg">
<circle cx="24.7213" cy="24.7213" r="24.7213" fill="#69ACFA"/>
<path d="M7.67236 23.4172C8.0135 21.9032 8.18636 20.3186 8.72484 18.8848C11.2153 12.2593 15.8841 8.48704 22.6518 7.7637C27.5165 7.24406 31.7126 8.95215 35.2953 12.3956C35.713 12.7982 35.9745 13.2553 35.5309 13.7605C35.0521 14.3058 34.6406 13.9337 34.2428 13.5456C25.7802 5.27935 12.358 9.48623 9.56774 21.2761C7.58517 29.6514 13.1474 38.4838 21.2322 40.0459C29.2589 41.5968 36.923 36.0684 38.5032 27.9529C38.6639 27.1237 38.7266 26.2721 38.7985 25.4269C38.852 24.7917 39.0585 24.3459 39.8357 24.3459C39.2406 23.2649 38.6792 22.2416 38.0642 21.1253C37.4538 22.2272 36.8909 23.2472 36.2912 24.3298C37.157 24.3731 37.2901 24.8944 37.255 25.6321C36.9383 32.3875 31.7172 37.9737 25.3075 38.6313C18.5964 39.3194 12.2662 34.5158 10.9017 27.236C9.5555 20.0443 14.4768 12.3988 21.3699 11.1206C25.7664 10.3042 29.649 11.4012 32.9976 14.5159C33.1108 14.6217 33.2347 14.7196 33.3326 14.8415C33.6447 15.2312 33.7839 15.722 33.3464 16.0155C33.1016 16.1791 32.5708 16.1262 32.2985 15.9497C31.0992 15.1735 30.0329 14.1165 28.7648 13.5231C21.6284 10.1839 13.5558 14.8158 12.3947 22.9168C11.6926 27.8182 13.4166 31.7556 17.111 34.7821C17.2609 34.9056 17.4414 34.9874 17.7183 35.1558C17.5791 32.2288 18.549 29.9786 20.9614 28.4132C18.7616 26.9104 17.5715 24.8366 17.7428 22.0812C17.8514 20.3459 18.5597 18.8479 19.8126 17.6931C22.5386 15.1799 26.565 15.5183 28.8917 18.4405C30.8529 20.9024 31.1527 25.6209 27.2962 28.2849C28.0611 29.252 29.0233 30.1341 29.5602 31.2424C30.1018 32.3603 30.2211 33.7043 30.5194 34.9296C32.6779 34.0523 35.6594 29.5904 35.6502 26.0026C35.4085 25.9898 35.1592 25.9946 34.9175 25.9577C34.3408 25.8711 34.0317 25.3274 34.3132 24.8014C35.3152 22.9265 36.3325 21.0596 37.3758 19.2103C37.7338 18.5752 38.3671 18.5528 38.722 19.1751C39.7729 21.0195 40.7902 22.8864 41.7892 24.7613C42.1165 25.3755 41.7815 25.9064 41.0931 25.9609C40.8468 25.9802 40.596 25.9641 40.3099 25.9641C40.0407 29.1253 39.109 31.9737 37.4156 34.5367C33.7319 40.1068 27.0698 42.9408 20.8421 41.576C14.3314 40.1518 9.22354 34.8206 7.99667 28.1614C7.87276 27.4878 7.77945 26.8078 7.67236 26.1309C7.67236 25.2264 7.67236 24.3218 7.67236 23.4172ZM23.9567 27.5792C26.617 27.592 28.7816 25.3916 28.8061 22.6506C28.8305 19.9273 26.6782 17.629 24.0592 17.5808C21.4892 17.5327 19.2619 19.7909 19.245 22.4613C19.2267 25.3418 21.2735 27.5664 23.9567 27.5792ZM19.245 34.6233C19.245 36.1662 19.242 36.1742 20.6356 36.6089C22.7727 37.2761 24.9235 37.345 27.0698 36.6826C29.3078 35.9914 28.8397 36.3506 28.7877 34.1919C28.7066 30.8543 25.9944 28.6602 22.9409 29.3274C21.0364 29.7428 19.0355 31.7284 19.2466 34.6233H19.245Z" fill="black"/>
</svg>
