<svg width="50" height="50" viewBox="0 0 50 50" fill="none" xmlns="http://www.w3.org/2000/svg">
<ellipse cx="24.65" cy="24.7218" rx="24.65" ry="24.7218" fill="#5EFFB2"/>
<path d="M7.65039 23.3786C7.91714 22.1152 8.08482 20.8196 8.46742 19.593C10.8301 12.0263 18.1087 7.10737 25.9878 7.72606C27.1112 7.81489 28.224 8.04 29.5059 8.22684C28.7773 9.09055 28.2773 9.57295 27.131 9.36468C18.7077 7.83633 10.4338 14.037 9.31798 22.616C8.21591 31.0908 13.7857 38.6912 22.1892 40.1813C30.6949 41.6882 39.0709 35.4982 40.0983 26.8641C40.2828 25.3143 40.263 23.6926 40.0252 22.1535C39.8575 21.0647 39.955 20.3495 41.0922 19.7844C41.3284 21.0448 41.5617 22.2898 41.7949 23.5348V25.9851C41.7537 26.1275 41.6912 26.2669 41.6729 26.4124C40.7431 33.6728 36.8195 38.5396 29.9891 40.9914C28.6051 41.4876 27.0914 41.6178 25.6372 41.9164H23.8081C23.6404 41.875 23.4742 41.8122 23.3035 41.7923C16.1941 40.9929 11.3179 37.2226 8.71283 30.5579C8.16713 29.1612 7.99488 27.616 7.65039 26.1382C7.65039 25.2194 7.65039 24.3005 7.65039 23.3817L7.65039 23.3786Z" fill="black"/>
<path d="M36.3394 7.76437C36.2205 9.58216 36.1016 11.3999 35.9766 13.3173C37.8911 13.1886 39.7051 13.0677 41.6547 12.9375C41.4733 13.1657 41.3742 13.3173 41.2507 13.4428C39.1883 15.5194 37.1305 17.6006 35.0453 19.6543C34.7998 19.8962 34.4081 20.0677 34.0621 20.1152C33.2085 20.2301 32.3396 20.3342 31.4845 20.2944C30.5333 20.25 29.855 20.5808 29.2422 21.2898C28.5791 22.0586 27.817 22.7416 27.0975 23.4629C26.6036 23.9575 26.096 24.3955 25.9771 25.1888C25.8765 25.8626 25.2805 26.1796 24.5976 26.1229C23.9498 26.0693 23.5093 25.6727 23.3782 25.0387C23.2395 24.3664 23.5398 23.8764 24.1327 23.518C24.6601 23.1995 25.1921 22.858 25.6403 22.4368C26.6052 21.5333 27.5441 20.5961 28.4359 19.619C28.7133 19.3143 28.9084 18.8503 28.9602 18.4368C29.0928 17.351 29.1111 16.2499 29.2102 15.1596C29.2331 14.9008 29.3321 14.5899 29.5059 14.4107C31.7055 12.1534 33.9249 9.916 36.1382 7.67249C36.2053 7.70311 36.2738 7.73374 36.3409 7.76437H36.3394ZM30.4495 18.8564C31.1552 18.8212 31.7116 18.7584 32.268 18.7752C33.4203 18.8089 34.3441 18.4567 35.1062 17.521C35.7937 16.6772 36.6336 15.959 37.4018 15.181C37.5268 15.0554 37.6259 14.9053 37.7844 14.7078C36.5924 14.7844 35.5132 14.8548 34.3807 14.9268C34.4523 13.7736 34.5194 12.6833 34.5971 11.4183C33.2511 12.7675 32.0347 13.9865 30.8214 15.2086C30.7543 15.2759 30.6903 15.377 30.6827 15.4674C30.6004 16.5761 30.5287 17.6864 30.4495 18.8579V18.8564Z" fill="black"/>
<path d="M26.5579 16.1074C26.6082 16.5576 26.66 17.0278 26.721 17.5806C24.6022 17.0829 22.6633 17.3172 20.8692 18.4167C19.5079 19.2514 18.508 20.4168 17.8846 21.8931C16.6514 24.8089 17.4013 28.129 19.7686 30.2729C22.1435 32.4246 25.5579 32.8136 28.3291 31.2484C31.4387 29.4904 32.5514 26.5608 31.7359 22.1304C32.2054 22.0799 32.6673 22.0309 33.1093 21.9849C34.4858 25.4735 33.0209 29.8595 29.7848 32.0999C26.3353 34.4874 21.7014 34.1459 18.6254 31.276C15.653 28.5026 14.9594 23.8701 16.9898 20.3371C18.9394 16.9435 23.1587 15.0645 26.5609 16.1104L26.5579 16.1074Z" fill="black"/>
</svg>
